<svg width="78" height="78" viewBox="0 0 78 78" fill="none" xmlns="http://www.w3.org/2000/svg">
<path d="M58.5 9.75C55.9141 9.75 53.4342 10.7772 51.6057 12.6057C49.7772 14.4342 48.75 16.9141 48.75 19.5V58.5C48.75 61.0859 49.7772 63.5658 51.6057 65.3943C53.4342 67.2228 55.9141 68.25 58.5 68.25C61.0859 68.25 63.5658 67.2228 65.3943 65.3943C67.2228 63.5658 68.25 61.0859 68.25 58.5C68.25 55.9141 67.2228 53.4342 65.3943 51.6057C63.5658 49.7772 61.0859 48.75 58.5 48.75H19.5C16.9141 48.75 14.4342 49.7772 12.6057 51.6057C10.7772 53.4342 9.75 55.9141 9.75 58.5C9.75 61.0859 10.7772 63.5658 12.6057 65.3943C14.4342 67.2228 16.9141 68.25 19.5 68.25C22.0859 68.25 24.5658 67.2228 26.3943 65.3943C28.2228 63.5658 29.25 61.0859 29.25 58.5V19.5C29.25 16.9141 28.2228 14.4342 26.3943 12.6057C24.5658 10.7772 22.0859 9.75 19.5 9.75C16.9141 9.75 14.4342 10.7772 12.6057 12.6057C10.7772 14.4342 9.75 16.9141 9.75 19.5C9.75 22.0859 10.7772 24.5658 12.6057 26.3943C14.4342 28.2228 16.9141 29.25 19.5 29.25H58.5C61.0859 29.25 63.5658 28.2228 65.3943 26.3943C67.2228 24.5658 68.25 22.0859 68.25 19.5C68.25 16.9141 67.2228 14.4342 65.3943 12.6057C63.5658 10.7772 61.0859 9.75 58.5 9.75Z" stroke="#10338C" stroke-width="5" stroke-linecap="round" stroke-linejoin="round"/>
</svg>
