<svg width="69" height="68" viewBox="0 0 69 68" fill="none" xmlns="http://www.w3.org/2000/svg">
<path d="M48.875 59.5V53.8333C48.875 50.8275 47.6634 47.9449 45.5067 45.8195C43.3501 43.694 40.425 42.5 37.375 42.5H14.375C11.325 42.5 8.39994 43.694 6.24327 45.8195C4.0866 47.9449 2.875 50.8275 2.875 53.8333V59.5" stroke="#10338C" stroke-width="5" stroke-linecap="round" stroke-linejoin="round"/>
<path d="M25.875 31.1667C32.2263 31.1667 37.375 26.0926 37.375 19.8333C37.375 13.5741 32.2263 8.5 25.875 8.5C19.5237 8.5 14.375 13.5741 14.375 19.8333C14.375 26.0926 19.5237 31.1667 25.875 31.1667Z" stroke="#10338C" stroke-width="5" stroke-linecap="round" stroke-linejoin="round"/>
<path d="M65.125 59.4998V53.8332C65.1231 51.3221 64.275 48.8827 62.7139 46.8981C61.1528 44.9134 58.9671 43.4959 56.5 42.8682" stroke="#10338C" stroke-width="5" stroke-linecap="round" stroke-linejoin="round"/>
<path d="M45 8.86816C47.4737 9.49235 49.6662 10.9102 51.232 12.898C52.7977 14.8859 53.6475 17.3308 53.6475 19.8473C53.6475 22.3638 52.7977 24.8087 51.232 26.7966C49.6662 28.7845 47.4737 30.2023 45 30.8265" stroke="#10338C" stroke-width="5" stroke-linecap="round" stroke-linejoin="round"/>
</svg>
