<svg width="160" height="23" viewBox="0 0 160 23" fill="none" xmlns="http://www.w3.org/2000/svg">
<path d="M9.43997 22.08C6.67997 22.08 4.53997 21.37 3.01997 19.95C1.51997 18.53 0.719966 16.53 0.619966 13.95C0.599966 13.41 0.589966 12.53 0.589966 11.31C0.589966 10.07 0.599966 9.17 0.619966 8.61C0.719966 6.05 1.52997 4.06 3.04997 2.64C4.58997 1.2 6.71997 0.479999 9.43997 0.479999C11.22 0.479999 12.77 0.789999 14.09 1.41C15.41 2.01 16.43 2.84 17.15 3.9C17.87 4.94 18.25 6.12 18.29 7.44V7.5C18.29 7.66 18.22 7.8 18.08 7.92C17.96 8.02 17.82 8.07 17.66 8.07H14.81C14.57 8.07 14.39 8.02 14.27 7.92C14.15 7.82 14.05 7.63 13.97 7.35C13.65 6.09 13.12 5.21 12.38 4.71C11.64 4.19 10.65 3.93 9.40997 3.93C6.52997 3.93 5.02997 5.54 4.90997 8.76C4.88997 9.3 4.87997 10.13 4.87997 11.25C4.87997 12.37 4.88997 13.22 4.90997 13.8C5.02997 17.02 6.52997 18.63 9.40997 18.63C10.65 18.63 11.64 18.37 12.38 17.85C13.14 17.33 13.67 16.45 13.97 15.21C14.03 14.93 14.12 14.74 14.24 14.64C14.38 14.54 14.57 14.49 14.81 14.49H17.66C17.84 14.49 17.99 14.55 18.11 14.67C18.25 14.79 18.31 14.94 18.29 15.12C18.25 16.44 17.87 17.63 17.15 18.69C16.43 19.73 15.41 20.56 14.09 21.18C12.77 21.78 11.22 22.08 9.43997 22.08Z" fill="white"/>
<path d="M28.3878 22.08C26.0478 22.08 24.2378 21.48 22.9578 20.28C21.6778 19.06 20.9878 17.4 20.8878 15.3L20.8578 13.98L20.8878 12.66C20.9878 10.58 21.6878 8.93 22.9878 7.71C24.2878 6.49 26.0878 5.88 28.3878 5.88C30.6878 5.88 32.4878 6.49 33.7878 7.71C35.0878 8.93 35.7878 10.58 35.8878 12.66C35.9078 12.9 35.9178 13.34 35.9178 13.98C35.9178 14.62 35.9078 15.06 35.8878 15.3C35.7878 17.4 35.0978 19.06 33.8178 20.28C32.5378 21.48 30.7278 22.08 28.3878 22.08ZM28.3878 19.11C29.4478 19.11 30.2678 18.78 30.8478 18.12C31.4278 17.44 31.7478 16.45 31.8078 15.15C31.8278 14.95 31.8378 14.56 31.8378 13.98C31.8378 13.4 31.8278 13.01 31.8078 12.81C31.7478 11.51 31.4278 10.53 30.8478 9.87C30.2678 9.19 29.4478 8.85 28.3878 8.85C27.3278 8.85 26.5078 9.19 25.9278 9.87C25.3478 10.53 25.0278 11.51 24.9678 12.81L24.9378 13.98L24.9678 15.15C25.0278 16.45 25.3478 17.44 25.9278 18.12C26.5078 18.78 27.3278 19.11 28.3878 19.11Z" fill="white"/>
<path d="M39.8417 22.08C37.5017 22.08 35.6917 21.48 34.4117 20.28C33.1317 19.06 32.4417 17.4 32.3417 15.3L32.3117 13.98L32.3417 12.66C32.4417 10.58 33.1417 8.93 34.4417 7.71C35.7417 6.49 37.5417 5.88 39.8417 5.88C42.1417 5.88 43.9417 6.49 45.2417 7.71C46.5417 8.93 47.2417 10.58 47.3417 12.66C47.3617 12.9 47.3717 13.34 47.3717 13.98C47.3717 14.62 47.3617 15.06 47.3417 15.3C47.2417 17.4 46.5517 19.06 45.2717 20.28C43.9917 21.48 42.1817 22.08 39.8417 22.08ZM39.8417 19.11C40.9017 19.11 41.7217 18.78 42.3017 18.12C42.8817 17.44 43.2017 16.45 43.2617 15.15C43.2817 14.95 43.2917 14.56 43.2917 13.98C43.2917 13.4 43.2817 13.01 43.2617 12.81C43.2017 11.51 42.8817 10.53 42.3017 9.87C41.7217 9.19 40.9017 8.85 39.8417 8.85C38.7817 8.85 37.9617 9.19 37.3817 9.87C36.8017 10.53 36.4817 11.51 36.4217 12.81L36.3917 13.98L36.4217 15.15C36.4817 16.45 36.8017 17.44 37.3817 18.12C37.9617 18.78 38.7817 19.11 39.8417 19.11Z" fill="white"/>
<path d="M51.2257 21.78C51.0257 21.78 50.8557 21.71 50.7157 21.57C50.5757 21.43 50.5057 21.26 50.5057 21.06V6.93C50.5057 6.73 50.5757 6.56 50.7157 6.42C50.8557 6.26 51.0257 6.18 51.2257 6.18H53.6557C53.8757 6.18 54.0557 6.25 54.1957 6.39C54.3357 6.53 54.4057 6.71 54.4057 6.93V8.16C54.8857 7.52 55.4857 7.03 56.2057 6.69C56.9457 6.35 57.7857 6.18 58.7257 6.18H59.9557C60.1757 6.18 60.3457 6.25 60.4657 6.39C60.6057 6.51 60.6757 6.68 60.6757 6.9V9.06C60.6757 9.26 60.6057 9.43 60.4657 9.57C60.3457 9.71 60.1757 9.78 59.9557 9.78H57.6157C56.6757 9.78 55.9357 10.05 55.3957 10.59C54.8557 11.13 54.5857 11.87 54.5857 12.81V21.06C54.5857 21.26 54.5157 21.43 54.3757 21.57C54.2357 21.71 54.0557 21.78 53.8357 21.78H51.2257Z" fill="white"/>
<path d="M68.5711 22.08C66.5511 22.08 65.0011 21.43 63.9211 20.13C62.8411 18.83 62.2611 17.1 62.1811 14.94L62.1511 13.95L62.1811 12.99C62.2411 10.89 62.8111 9.18 63.8911 7.86C64.9911 6.54 66.5511 5.88 68.5711 5.88C70.5111 5.88 72.0511 6.54 73.1911 7.86V1.2C73.1911 0.979999 73.2611 0.81 73.4011 0.69C73.5411 0.549999 73.7111 0.479999 73.9111 0.479999H76.4611C76.6811 0.479999 76.8511 0.549999 76.9711 0.69C77.1111 0.81 77.1811 0.979999 77.1811 1.2V21.06C77.1811 21.26 77.1111 21.43 76.9711 21.57C76.8511 21.71 76.6811 21.78 76.4611 21.78H74.0911C73.8911 21.78 73.7211 21.71 73.5811 21.57C73.4411 21.43 73.3711 21.26 73.3711 21.06V19.95C72.2311 21.37 70.6311 22.08 68.5711 22.08ZM69.6811 18.87C70.8411 18.87 71.7011 18.5 72.2611 17.76C72.8211 17.02 73.1311 16.11 73.1911 15.03C73.2111 14.79 73.2211 14.4 73.2211 13.86C73.2211 13.34 73.2111 12.96 73.1911 12.72C73.1511 11.72 72.8311 10.87 72.2311 10.17C71.6511 9.45 70.8011 9.09 69.6811 9.09C67.5211 9.09 66.3711 10.42 66.2311 13.08L66.2011 13.98L66.2311 14.88C66.3711 17.54 67.5211 18.87 69.6811 18.87Z" fill="white"/>
<path d="M81.7796 3.6C81.5796 3.6 81.4096 3.53 81.2696 3.39C81.1296 3.25 81.0596 3.08 81.0596 2.88V0.72C81.0596 0.52 81.1296 0.35 81.2696 0.209999C81.4096 0.0699997 81.5796 0 81.7796 0H84.5096C84.7096 0 84.8796 0.0699997 85.0196 0.209999C85.1796 0.35 85.2596 0.52 85.2596 0.72V2.88C85.2596 3.08 85.1896 3.25 85.0496 3.39C84.9096 3.53 84.7296 3.6 84.5096 3.6H81.7796ZM81.8996 21.78C81.6996 21.78 81.5296 21.71 81.3896 21.57C81.2496 21.43 81.1796 21.26 81.1796 21.06V6.9C81.1796 6.7 81.2496 6.53 81.3896 6.39C81.5296 6.25 81.6996 6.18 81.8996 6.18H84.3896C84.6096 6.18 84.7796 6.25 84.8996 6.39C85.0396 6.51 85.1096 6.68 85.1096 6.9V21.06C85.1096 21.26 85.0396 21.43 84.8996 21.57C84.7796 21.71 84.6096 21.78 84.3896 21.78H81.8996Z" fill="white"/>
<path d="M89.8097 21.78C89.6097 21.78 89.4397 21.71 89.2997 21.57C89.1597 21.43 89.0897 21.26 89.0897 21.06V6.9C89.0897 6.7 89.1597 6.53 89.2997 6.39C89.4397 6.25 89.6097 6.18 89.8097 6.18H92.2697C92.4697 6.18 92.6397 6.25 92.7797 6.39C92.9197 6.53 92.9897 6.7 92.9897 6.9V8.13C94.1697 6.63 95.8397 5.88 97.9997 5.88C99.8397 5.88 101.3 6.49 102.38 7.71C103.46 8.91 104 10.55 104 12.63V21.06C104 21.26 103.93 21.43 103.79 21.57C103.67 21.71 103.5 21.78 103.28 21.78H100.64C100.44 21.78 100.27 21.71 100.13 21.57C99.9897 21.43 99.9197 21.26 99.9197 21.06V12.81C99.9197 11.63 99.6297 10.72 99.0497 10.08C98.4897 9.42 97.6697 9.09 96.5897 9.09C95.5297 9.09 94.6897 9.42 94.0697 10.08C93.4697 10.74 93.1697 11.65 93.1697 12.81V21.06C93.1697 21.26 93.0997 21.43 92.9597 21.57C92.8397 21.71 92.6697 21.78 92.4497 21.78H89.8097Z" fill="white"/>
<path d="M112.34 22.08C111.32 22.08 110.38 21.88 109.52 21.48C108.68 21.06 108.01 20.5 107.51 19.8C107.03 19.1 106.79 18.33 106.79 17.49C106.79 16.13 107.34 15.03 108.44 14.19C109.54 13.35 111.05 12.78 112.97 12.48L117.08 11.88V11.25C117.08 10.37 116.86 9.71 116.42 9.27C115.98 8.83 115.27 8.61 114.29 8.61C113.63 8.61 113.09 8.74 112.67 9C112.27 9.24 111.95 9.48 111.71 9.72C111.47 9.98 111.31 10.15 111.23 10.23C111.15 10.47 111 10.59 110.78 10.59H108.47C108.29 10.59 108.13 10.53 107.99 10.41C107.87 10.29 107.81 10.13 107.81 9.93C107.83 9.43 108.07 8.86 108.53 8.22C109.01 7.58 109.74 7.03 110.72 6.57C111.7 6.11 112.9 5.88 114.32 5.88C116.68 5.88 118.4 6.41 119.48 7.47C120.56 8.53 121.1 9.92 121.1 11.64V21.06C121.1 21.26 121.03 21.43 120.89 21.57C120.77 21.71 120.6 21.78 120.38 21.78H117.95C117.75 21.78 117.58 21.71 117.44 21.57C117.3 21.43 117.23 21.26 117.23 21.06V19.89C116.79 20.53 116.16 21.06 115.34 21.48C114.54 21.88 113.54 22.08 112.34 22.08ZM113.36 19.23C114.46 19.23 115.36 18.87 116.06 18.15C116.76 17.43 117.11 16.38 117.11 15V14.37L114.11 14.85C112.95 15.03 112.07 15.32 111.47 15.72C110.89 16.12 110.6 16.61 110.6 17.19C110.6 17.83 110.87 18.33 111.41 18.69C111.95 19.05 112.6 19.23 113.36 19.23Z" fill="white"/>
<path d="M131.853 21.78C130.033 21.78 128.663 21.31 127.743 20.37C126.843 19.41 126.393 18.01 126.393 16.17V9.36H124.023C123.823 9.36 123.653 9.29 123.513 9.15C123.373 8.99 123.303 8.81 123.303 8.61V6.9C123.303 6.7 123.373 6.53 123.513 6.39C123.653 6.25 123.823 6.18 124.023 6.18H126.393V1.2C126.393 0.979999 126.463 0.81 126.603 0.69C126.743 0.549999 126.913 0.479999 127.113 0.479999H129.543C129.763 0.479999 129.933 0.549999 130.053 0.69C130.193 0.81 130.263 0.979999 130.263 1.2V6.18H134.013C134.233 6.18 134.403 6.25 134.523 6.39C134.663 6.51 134.733 6.68 134.733 6.9V8.61C134.733 8.83 134.663 9.01 134.523 9.15C134.383 9.29 134.213 9.36 134.013 9.36H130.263V15.87C130.263 16.73 130.413 17.38 130.713 17.82C131.013 18.26 131.513 18.48 132.213 18.48H134.283C134.483 18.48 134.653 18.55 134.793 18.69C134.933 18.83 135.003 19 135.003 19.2V21.06C135.003 21.26 134.933 21.43 134.793 21.57C134.673 21.71 134.503 21.78 134.283 21.78H131.853Z" fill="white"/>
<path d="M144.384 22.08C142.164 22.08 140.394 21.44 139.074 20.16C137.774 18.86 137.084 17.04 137.004 14.7L136.974 13.95L137.004 13.2C137.104 10.92 137.804 9.13 139.104 7.83C140.424 6.53 142.184 5.88 144.384 5.88C146.744 5.88 148.564 6.6 149.844 8.04C151.144 9.48 151.794 11.4 151.794 13.8V14.43C151.794 14.63 151.724 14.8 151.584 14.94C151.444 15.08 151.264 15.15 151.044 15.15H141.084V15.39C141.124 16.49 141.424 17.42 141.984 18.18C142.564 18.92 143.354 19.29 144.354 19.29C145.534 19.29 146.484 18.83 147.204 17.91C147.384 17.69 147.524 17.55 147.624 17.49C147.744 17.43 147.914 17.4 148.134 17.4H150.714C150.894 17.4 151.044 17.46 151.164 17.58C151.304 17.68 151.374 17.81 151.374 17.97C151.374 18.45 151.084 19.02 150.504 19.68C149.944 20.32 149.134 20.88 148.074 21.36C147.014 21.84 145.784 22.08 144.384 22.08ZM147.714 12.63V12.54C147.714 11.36 147.414 10.41 146.814 9.69C146.234 8.97 145.424 8.61 144.384 8.61C143.344 8.61 142.534 8.97 141.954 9.69C141.374 10.41 141.084 11.36 141.084 12.54V12.63H147.714Z" fill="white"/>
<path d="M155.518 21.78C155.318 21.78 155.148 21.71 155.008 21.57C154.868 21.43 154.798 21.26 154.798 21.06V18.09C154.798 17.89 154.868 17.72 155.008 17.58C155.148 17.42 155.318 17.34 155.518 17.34H158.518C158.718 17.34 158.888 17.42 159.028 17.58C159.168 17.72 159.238 17.89 159.238 18.09V21.06C159.238 21.26 159.168 21.43 159.028 21.57C158.888 21.71 158.718 21.78 158.518 21.78H155.518Z" fill="white"/>
</svg>
